<?xml version="1.0" standalone="no"?><!DOCTYPE svg PUBLIC "-//W3C//DTD SVG 1.1//EN" "http://www.w3.org/Graphics/SVG/1.1/DTD/svg11.dtd"><svg t="1528110476633" class="icon" style="" viewBox="0 0 1390 1024" version="1.1" xmlns="http://www.w3.org/2000/svg" p-id="6168" xmlns:xlink="http://www.w3.org/1999/xlink" width="271.484375" height="200"><defs><style type="text/css"></style></defs><path d="M1308.221484 102.516153C1277.36105 82.260846 1046.218101 195.667794 1046.218101 195.667794L1046.218101 183.802059C1046.218101 84.819881 966.603432 4.614218 868.392375 4.614218L183.24276 4.614218C85.02867 4.614218 5.413998 84.819881 5.413998 183.802059L5.413998 786.297051C5.413998 885.260763 85.02867 965.489503 183.24276 965.489503L868.393889 965.489503C966.604946 965.489503 1046.219622 885.25922 1046.219622 786.297051L1046.219622 771.582983C1046.219622 771.582983 1278.738893 884.031254 1308.222998 864.736161 1337.698004 845.451842 1339.074333 122.751457 1308.221484 102.516153L1308.221484 102.516153ZM382.916773 773.032536 382.916773 195.586237 833.905225 484.283229 382.916773 773.032536 382.916773 773.032536Z" p-id="6169" fill="#ffffff"></path></svg>