<?xml version="1.0" standalone="no"?><!DOCTYPE svg PUBLIC "-//W3C//DTD SVG 1.1//EN" "http://www.w3.org/Graphics/SVG/1.1/DTD/svg11.dtd"><svg t="1528110720558" class="icon" style="" viewBox="0 0 1024 1024" version="1.1" xmlns="http://www.w3.org/2000/svg" p-id="6324" xmlns:xlink="http://www.w3.org/1999/xlink" width="200" height="200"><defs><style type="text/css"></style></defs><path d="M416.426667 464.213333v-136.533333c0-13.653333 13.653333-20.48 20.48-13.653333l252.586666 177.493333c6.826667 6.826667 6.826667 13.653333 0 20.48l-252.586666 177.493333c-6.826667 6.826667-20.48 0-20.48-13.653333v-136.533333-75.093334z" fill="#bfbfbf" p-id="6325"></path><path d="M512 0C232.106667 0 0 232.106667 0 512S232.106667 1024 512 1024 1024 791.893333 1024 512 791.893333 0 512 0m0 68.266667C757.76 68.266667 955.733333 266.24 955.733333 512S757.76 955.733333 512 955.733333 68.266667 757.76 68.266667 512 266.24 68.266667 512 68.266667" fill="#bfbfbf" p-id="6326"></path></svg>