<?xml version="1.0" standalone="no"?><!DOCTYPE svg PUBLIC "-//W3C//DTD SVG 1.1//EN" "http://www.w3.org/Graphics/SVG/1.1/DTD/svg11.dtd"><svg t="1528107243683" class="icon" style="" viewBox="0 0 1024 1024" version="1.1" xmlns="http://www.w3.org/2000/svg" p-id="3419" xmlns:xlink="http://www.w3.org/1999/xlink" width="200" height="200"><defs><style type="text/css"></style></defs><path d="M236.8 992.8c-74.4 0-135.2-60.8-135.2-135.2V186.4c0-74.4 60.8-135.2 135.2-135.2h502.4c74.4 0 135.2 60 135.2 134.4v56.8c0 12.8-10.4 23.2-23.2 23.2s-23.2-10.4-23.2-23.2v-56.8c0-48.8-40-88-88.8-88H236.8c-48.8 0-88.8 39.2-88.8 88v671.2c0 48.8 40 88 88.8 88h167.2c12.8 0 23.2 10.4 23.2 23.2 0 12.8-10.4 23.2-23.2 23.2H236.8z" fill="#8a8a8a" p-id="3420"></path><path d="M533.6 995.2c-7.2 0-14.4-1.6-20-5.6-7.2-4-12.8-10.4-17.6-20-0.8-2.4-2.4-5.6-3.2-8-21.6-49.6-17.6-121.6 9.6-168L725.6 408c19.2-33.6 55.2-53.6 92.8-53.6 18.4 0 36.8 4.8 53.6 14.4 51.2 29.6 68.8 95.2 39.2 146.4L688 901.6c-26.4 46.4-88.8 86.4-141.6 92-3.2 0.8-5.6 0.8-8 1.6h-4.8z m-0.8-55.2c-0.8 0-0.8 0-2.4 0.8l2.4 8.8h1.6l-0.8-8.8-0.8-0.8z m285.6-539.2c-21.6 0-41.6 12-52.8 30.4l-223.2 386.4c-19.2 33.6-22.4 92-6.4 126.4l1.6 3.2h3.2c38.4-3.2 87.2-35.2 106.4-68.8l223.2-386.4c16.8-28.8 7.2-66.4-21.6-83.2-9.6-4.8-20-8-30.4-8zM264.8 629.6c-12.8 0-23.2-10.4-23.2-23.2 0-12.8 10.4-23.2 23.2-23.2H488c12.8 0 23.2 10.4 23.2 23.2 0 12.8-10.4 23.2-23.2 23.2H264.8z m0-168c-12.8 0-23.2-10.4-23.2-23.2s10.4-23.2 23.2-23.2H600c12.8 0 23.2 10.4 23.2 23.2s-10.4 23.2-23.2 23.2H264.8z m0-167.2c-12.8 0-23.2-10.4-23.2-23.2s10.4-23.2 23.2-23.2H712c12.8 0 23.2 10.4 23.2 23.2s-10.4 23.2-23.2 23.2H264.8z" fill="#8a8a8a" p-id="3421"></path><path d="M710.096 518.312l23.6-40.88 137.176 79.2-23.6 40.88z" fill="#8a8a8a" p-id="3422"></path></svg>