<svg id="图层_1" data-name="图层 1" xmlns="http://www.w3.org/2000/svg" xmlns:xlink="http://www.w3.org/1999/xlink" viewBox="0 0 588.56 600.99"><defs><style>.cls-1{fill:none;}.cls-2{clip-path:url(#clip-path);}.cls-3{fill:#6b7072;}</style><clipPath id="clip-path"><rect class="cls-1" x="-1.53" y="4.19" width="592.98" height="592.23"/></clipPath></defs><title>画板 1</title><g class="cls-2"><path class="cls-3" d="M591,523.1h-.82C582.48,435.38,506,358.51,395.35,329.22h-1.81l1.48-1a177.43,177.43,0,1,0-200.3,0l1.48,1h-1.81C83.79,358.51,7.25,434.55-.48,522.28h-1v14a44.31,44.31,0,0,0,7.9,29.13,57.94,57.94,0,0,0,50.69,30.28H532.45a58.4,58.4,0,0,0,39.17-14.15,51.16,51.16,0,0,0,13.16-16.46,72.61,72.61,0,0,0,6.26-28Zm-563.38,0A174.47,174.47,0,0,1,93.5,412.66,305.92,305.92,0,0,1,236.69,348.8a154.57,154.57,0,0,1,22.38-6.75,6.09,6.09,0,0,0,0-11.68,68.54,68.54,0,0,1-13.5-6.58,71,71,0,0,0-7.9-4.28,149.45,149.45,0,1,1,112.25,0A76,76,0,0,1,329,330.37a6.09,6.09,0,0,0,0,11.85,149.78,149.78,0,0,1,22.55,6.42,306.05,306.05,0,0,1,143.68,64.68,174.61,174.61,0,0,1,65.83,110.44,36.36,36.36,0,0,1-3,31.43c-9.38,11.52-28.64,12.51-47.4,12.51H79.34c-16.46,0-35.88,0-45.92-11.68a38.35,38.35,0,0,1-5.76-31.93Zm0,0"/></g></svg>